<svg width="115" height="34" viewBox="0 0 115 34" fill="none" xmlns="http://www.w3.org/2000/svg">
<path d="M0.5 34V0.749999H25.3C26.2667 0.749999 27.3833 0.799998 28.65 0.899997C29.95 0.999998 31.2 1.23333 32.4 1.6C33.6 1.96667 34.5833 2.53333 35.35 3.3C36.15 4.06667 36.55 5.13333 36.55 6.5V28.25C36.55 29.5833 36.15 30.65 35.35 31.45C34.5833 32.2167 33.6 32.7833 32.4 33.15C31.2 33.5167 29.95 33.75 28.65 33.85C27.3833 33.95 26.2667 34 25.3 34H0.5ZM15 30.5H21.35C21.6167 30.1667 21.8 29.8167 21.9 29.45C22 29.05 22.05 28.65 22.05 28.25V6.5C22.05 6.1 22 5.71667 21.9 5.35C21.8 4.95 21.6167 4.58333 21.35 4.25H15V30.5ZM54.0625 34H39.5625V2.5C39.5625 2.13333 39.8792 1.83333 40.5125 1.6C41.1458 1.36667 41.8958 1.2 42.7625 1.1C43.6292 0.966664 44.4458 0.883331 45.2125 0.849998C45.9792 0.783332 46.5125 0.749999 46.8125 0.749999H65.4625C66.1625 0.749999 67.0625 0.783332 68.1625 0.849998C69.2625 0.916665 70.3458 1.08333 71.4125 1.35C72.4792 1.61666 73.3792 2.05 74.1125 2.65C74.8458 3.21667 75.2125 4 75.2125 5V34H60.7125V14.65C60.7125 14.35 60.7125 13.8333 60.7125 13.1C60.7458 12.3667 60.7625 11.5333 60.7625 10.6C60.7625 9.66667 60.7625 8.75 60.7625 7.85C60.7625 6.91667 60.7458 6.13333 60.7125 5.5C60.7125 4.83333 60.6792 4.41667 60.6125 4.25H54.0625V34ZM92.7344 34H78.2344V2.5C78.2344 2.13333 78.551 1.83333 79.1844 1.6C79.8177 1.36667 80.5677 1.2 81.4344 1.1C82.301 0.966664 83.1177 0.883331 83.8844 0.849998C84.651 0.783332 85.1844 0.749999 85.4844 0.749999H106.984C107.284 0.749999 107.818 0.783332 108.584 0.849998C109.351 0.883331 110.168 0.966664 111.034 1.1C111.901 1.2 112.651 1.36667 113.284 1.6C113.918 1.83333 114.234 2.13333 114.234 2.5V34H99.7344V20.45H92.7344V34ZM92.7344 16.95H99.7344V4.25H92.7344V16.95Z" fill="black"/>
</svg>
